<svg xmlns="http://www.w3.org/2000/svg" viewBox="0 0 4817.96 1778.6"><defs><style>.cls-1{fill:#93d500;}.cls-2{fill:#4d5a31;}.cls-3{fill:#6ba43a;}.cls-4{fill:#424143;}.cls-5{fill:#ff6c37;}.cls-6{fill:#fff;}</style></defs><g id="Layer_2" data-name="Layer 2"><g id="Layer_1-2" data-name="Layer 1"><path class="cls-1" d="M3563.36,980.41h-450c.09,2.22.14,4.41.26,6.6.17,4.23.48,8.44.73,12.67.12,1.82.2,3.64.35,5.43.34,4.89.76,9.78,1.22,14.64.11,1.11.2,2.22.31,3.27.51,5.43,1.11,10.86,1.73,16.23a14.25,14.25,0,0,0,.18,1.57c.71,5.8,1.45,11.62,2.3,17.39a.54.54,0,0,0,0,.23,754.16,754.16,0,0,0,23.25,106.31,2.39,2.39,0,0,1,.14.43c1.62,5.51,3.33,11,5.06,16.4.11.31.23.65.31,1s.2.62.32,1c1.59,4.92,3.26,9.81,4.94,14.73.43,1.22.85,2.47,1.31,3.72,1.51,4.24,3,8.47,4.63,12.73.74,1.91,1.45,3.81,2.16,5.75,1.4,3.52,2.73,7,4.12,10.51q1.59,4,3.24,7.91c1.14,2.75,2.28,5.45,3.44,8.21,1.43,3.35,2.93,6.68,4.41,10,.88,2,1.79,4,2.67,6,1.82,4,3.7,8,5.6,12,.63,1.28,1.22,2.56,1.85,3.81,2.22,4.61,4.46,9.12,6.74,13.64.39.69.71,1.4,1.08,2.08,2.56,5,5.17,10,7.87,14.92a4.92,4.92,0,0,1,.34.69c.57,1,1.2,2,1.76,3l384.29-231.47,1.42-.85a307.28,307.28,0,0,1-28.11-100.49Z"/><path class="cls-2" d="M3674,1187l-1.08,1.08L3355.94,1505c1.62,1.51,3.24,3.07,4.91,4.52,3,2.7,6,5.35,9,8,1.56,1.37,3.07,2.73,4.63,4.1,3.58,3.09,7.22,6.11,10.83,9.15,1,.82,1.93,1.62,2.93,2.44q6.9,5.68,14,11.2c4.5,3.56,9,7,13.62,10.46a3.92,3.92,0,0,1,.51.37q28.68,21.43,59.3,40.08c.68.46,1.39.85,2.1,1.31,3.9,2.3,7.76,4.6,11.68,6.88l7.17,4.09c2.27,1.31,4.52,2.56,6.79,3.81,4.12,2.25,8.24,4.49,12.39,6.68.57.31,1.14.63,1.74.91,11.51,6,23.22,11.63,35.05,17l11.25-27.32,159.41-387.07.57-1.42A307.78,307.78,0,0,1,3674,1187Z"/><path class="cls-3" d="M3641,1155.4q-5.11-5.69-9.9-11.66-4.26-5.23-8.21-10.6c-3-4.09-6-8.24-8.81-12.45s-5.6-8.5-8.22-12.82l-384.76,231.75c5.91,9.84,12.05,19.39,18.36,28.83a11.09,11.09,0,0,0,.63,1,2.4,2.4,0,0,0,.22.37c.2.29.4.63.6.94a.15.15,0,0,1,.06.11c.51.74,1,1.48,1.53,2.25l.11.14c.06.06,0,0,0,.06q10,14.79,20.64,29.08c.14.2.31.4.45.59a6,6,0,0,1,.46.6c3.1,4.07,6.17,8.13,9.35,12.17.43.54.83,1,1.28,1.56,3.24,4.18,6.57,8.3,9.95,12.37.8,1,1.62,1.93,2.42,2.92,3,3.64,6.08,7.25,9.18,10.83,1.33,1.54,2.7,3.1,4.06,4.61,2.65,3,5.26,6,8,9,1.48,1.62,3,3.27,4.52,4.89.68.77,1.37,1.48,2.08,2.25,2,2.13,3.92,4.26,5.91,6.36.79.83,1.65,1.65,2.44,2.5,3.5,3.64,7,7.31,10.63,10.89l317.43-317.37c-3.64-3.64-7.05-7.39-10.4-11.14Z"/><path class="cls-2" d="M4061.68,1186.81c-3.5,2.81-7,5.57-10.6,8.21l.77,1.34,231.43,384.11c10.72-7,21.32-14.21,31.67-21.8a766.88,766.88,0,0,0,64.95-53.7l-317-316.91Z"/><path class="cls-1" d="M4249.66,1583.63l-7.85-13.05-216-358.53c-4.38,2.62-8.84,5-13.3,7.39s-9,4.69-13.65,6.88a305.48,305.48,0,0,1-218.82,17c-4.86-1.45-9.6-3.35-14.38-5.06s-9.66-3.15-14.38-5.09L3592,1620l-6.22,15.15-5.35,13,0,.05c.4.17.83.32,1.23.49s.88.31,1.3.51h.06c.11,0,.23.08.31.11,3.76,1.56,7.54,2.87,11.32,4.35,4.74,1.85,9.46,3.72,14.21,5.46,2.44.88,4.83,1.9,7.25,2.76h0a759.88,759.88,0,0,0,154,36.86c2.08.26,4.1.54,6.17.83s4.29.45,6.45.71c4,.45,8.08.91,12.14,1.31l3,.25c5,.48,9.95.91,14.9,1.25,1.71.14,3.41.2,5.09.34q6.53.43,13,.74c2.68.17,5.35.23,8,.34,3.47.12,6.91.26,10.38.37,5,.12,10,.15,15,.17,1.2,0,2.36,0,3.56.06a757.38,757.38,0,0,0,125.33-10.46c.68-.11,1.39-.23,2.1-.31,4.38-.77,8.75-1.59,13.13-2.39l7.48-1.45c2.56-.54,5.14-1,7.7-1.62q6.39-1.32,12.82-2.81c.77-.17,1.54-.32,2.3-.54A757.73,757.73,0,0,0,4219.84,1618v0c3.75-2,7.42-4.21,11.14-6.26,4.44-2.41,8.84-4.94,13.28-7.47,3-1.74,6.14-3.36,9.18-5.18,0,0,.06,0,.08,0h0l.14-.09.06-.06-.57-.93.57.93.09,0,.14-.09.51-.31c1-.6,2-1.17,3-1.76ZM3674.13,713.19c3.5-2.85,7-5.58,10.6-8.25l-.77-1.31L3452.52,319.49c-10.74,7-21.34,14.27-31.72,21.86A762.14,762.14,0,0,0,3355.91,395l317,317Z"/><path class="cls-2" d="M3333.93,416.08c-3.61,3.61-7,7.34-10.54,11s-7.08,7.3-10.52,11a756.37,756.37,0,0,0-64.13,79.47c-.93,1.28-1.84,2.65-2.78,4-2.16,3.19-4.32,6.34-6.43,9.53s-4.4,6.65-6.53,10c-.8,1.23-1.6,2.48-2.36,3.7a753.12,753.12,0,0,0-117.23,374.85c-.2,5.08-.31,10.17-.43,15.23s-.25,10.15-.25,15.21h448.92c0-5.06.45-10.12.74-15.21s.31-10.17.82-15.23a304.48,304.48,0,0,1,67.71-163.45c3.19-3.89,6.8-7.56,10.24-11.31s6.56-7.68,10.2-11.32Zm926.25-111.42c-.6-.37-1.26-.74-1.85-1.11-3.95-2.42-7.93-4.75-11.94-7.08-2.3-1.34-4.63-2.64-6.94-4s-4.66-2.62-7-3.9q-6.09-3.31-12.19-6.59c-.66-.31-1.28-.65-1.94-1a757.08,757.08,0,0,0-80.95-36.38c-.71-.28-1.42-.57-2.13-.82-6-2.25-12.06-4.5-18.14-6.6a759.17,759.17,0,0,0-151.25-35.9l-6.31-.85c-2.13-.26-4.24-.46-6.34-.69-4.06-.48-8.1-.93-12.19-1.33-1.11-.11-2.25-.17-3.41-.31-4.81-.43-9.67-.86-14.5-1.23l-5.66-.34c-4.12-.25-8.33-.57-12.45-.74-2.22-.11-4.43-.2-6.62-.25V645.53a312.33,312.33,0,0,1,68.16,14.84L4297.7,329.24c-12.31-8.52-24.73-16.82-37.53-24.58Z"/><path class="cls-3" d="M3852.7,195.22c-5.09.11-10.18.11-15.24.31a755.07,755.07,0,0,0-94.88,9.81l-2.08.34q-6.6,1.15-13.16,2.39c-2.47.48-5,.93-7.47,1.42s-5.15,1-7.74,1.62q-6.39,1.32-12.76,2.81c-.8.14-1.56.34-2.33.51A760.8,760.8,0,0,0,3515.88,282c-3.72,2-7.36,4.24-11.08,6.26q-6.66,3.66-13.28,7.47c-3.26,1.91-6.59,3.64-9.86,5.57a.2.2,0,0,1-.11.06c-.23.14-.46.28-.69.4-.85.54-1.73,1-2.58,1.48l0,.05,7.87,13.05L3710,687.92c4.38-2.62,8.84-5,13.3-7.42s9-4.69,13.62-6.85a304.77,304.77,0,0,1,100.51-28.17c5.06-.52,10.12-.94,15.21-1.2s10.15-.51,15.23-.51V194.91c-5.08,0-10.14.22-15.2.31Z"/><path class="cls-2" d="M4622.14,912.87c-.22-4-.45-8-.74-12.11-.1-2-.23-4-.39-6q-.48-7.12-1.17-14.24c-.08-1.22-.2-2.45-.31-3.67-.51-5.32-1.08-10.6-1.71-15.89,0-.43-.08-.85-.14-1.28l-.08-.6q-1-8.56-2.25-17.11l-.09-.54a757.22,757.22,0,0,0-23.19-106.11c-.09-.26-.14-.45-.23-.68-1.62-5.43-3.29-10.8-5-16.18-.26-.71-.49-1.42-.71-2.13q-2.39-7.29-4.89-14.52l-1.37-3.93c-1.47-4.17-3-8.35-4.54-12.53-.77-2-1.51-4-2.31-5.94q-1.95-5.21-4-10.32c-1.08-2.76-2.19-5.46-3.3-8.13s-2.25-5.34-3.35-8c-1.48-3.41-3-6.82-4.5-10.2-.85-1.91-1.7-3.84-2.58-5.77-1.85-4-3.75-8.1-5.66-12.14-.6-1.19-1.19-2.44-1.79-3.67-2.22-4.6-4.49-9.23-6.82-13.78-.31-.63-.66-1.28-1-1.91-2.59-5-5.26-10.09-7.93-15.06-.11-.17-.2-.37-.31-.54a757.93,757.93,0,0,0-43-69.7L4157.59,851.42a312.38,312.38,0,0,1,14.81,68.13h450c-.12-2.24-.17-4.49-.29-6.68Z"/><path class="cls-3" d="M4174.16,950c0,5.09-.48,10.15-.74,15.23s-.34,10.18-.85,15.21a304.68,304.68,0,0,1-67.68,163.51c-3.19,3.89-6.8,7.53-10.24,11.31s-6.56,7.65-10.2,11.28l317.43,317.37c3.61-3.61,7-7.33,10.51-11s7.11-7.27,10.52-11a757.84,757.84,0,0,0,64.3-79.7c.79-1.11,1.51-2.19,2.27-3.27,2.36-3.38,4.64-6.82,7-10.24,2-3.07,4-6.11,6-9.21,1-1.47,2-3,2.9-4.49a752.67,752.67,0,0,0,117-374.56c.2-5.06.32-10.15.4-15.23s.26-10.12.26-15.21Z"/><path class="cls-4" d="M4756.37,61.59c-82.12-82.12-215.27-82.12-297.39,0-65.52,65.49-78.62,163.42-39.59,242L3961.28,761.71c-78.62-39-176.58-25.93-242.1,39.57-82.12,82.12-82.09,215.26,0,297.38s215.33,82.09,297.45,0c65.52-65.52,78.59-163.44,39.56-242.07l458.11-458c78.65,39,176.55,25.92,242.07-39.6,82.12-82.09,82.12-215.24,0-297.36Z"/><path class="cls-5" d="M1584.53,394.52C1286,19,730.53-50.29,343.91,239.68s-458,829.42-159.43,1204.91,854,444.81,1240.62,154.84l.2-.15c386.4-290,457.71-829.35,159.2-1204.76Z"/><path class="cls-6" d="M1182.82,592.18,809.88,946.78,704.49,844.57c367-346.26,403.9-315,478.36-252.39Z"/><path class="cls-5" d="M809.88,956.48A13.65,13.65,0,0,1,801,953L694.9,852.89a12,12,0,0,1,0-17.39c361.88-341.39,411.28-325.4,496.76-252.4a10.88,10.88,0,0,1,4.43,9,9.51,9.51,0,0,1-3.68,9.05L819.47,953a14.41,14.41,0,0,1-9.59,3.47Zm-87-111.93,87,82.05,353.79-333.74c-25.3-29.91-70.37-37.09-104.68-16.69C994.87,603.29,891.69,686,722.9,844.55Z"/><path class="cls-6" d="M916.76,1044.82l-101.71-98L1188,599.11C1288.24,691.6,1139.34,846,916.76,1044.8Z"/><path class="cls-5" d="M916.76,1057.34a16,16,0,0,1-8.84-3.47L804,957.92a13.84,13.84,0,0,1,0-11.14,12.79,12.79,0,0,1,0-9l372.94-351.82a14.62,14.62,0,0,1,19.16,0c24.46,21.22,37.86,51.42,36.84,82.73,0,93.87-113.51,212.06-306.6,384.52a16,16,0,0,1-9.6,4.17ZM834.2,946.78l83.28,78.54c147.4-131.41,288.2-267,288.92-358.78A76.44,76.44,0,0,0,1187.24,613Z"/><path class="cls-6" d="M707.42,846.66l73.72,69.54a4,4,0,0,1,.39,5.89l-.39.37L625.61,953.75a15.07,15.07,0,0,1-16.09-7.1,13.34,13.34,0,0,1,2.82-16.55L703,845.28S706,845.28,707.42,846.66Z"/><path class="cls-5" d="M621.93,967.64a29.1,29.1,0,0,1-24.32-13.22,25.35,25.35,0,0,1,5.17-31.29l89.91-85.52a18.5,18.5,0,0,1,23.58,0L790,907.15a14.76,14.76,0,0,1,4.42,15.31,16.71,16.71,0,0,1-12.52,11.13L626.35,964.88ZM704.49,862l-83.28,78.56L759.05,912.7Z"/><path class="cls-6" d="M1381.11,439.31c-53.35-48.55-137.15-50.58-193.09-4.77s-65.51,124.45-22,181,125.68,72.43,189.25,36.51L1255.07,557.5Z"/><path class="cls-5" d="M1281.6,684c-62.65-.76-118.76-36.77-142.51-91.47s-10.61-117.49,33.17-159.52c61.39-56.84,159.73-56.84,221.12,0a11.56,11.56,0,0,1,4.42,9.05,11.73,11.73,0,0,1-4.42,9L1274,557.53l90.66,84.14a11.35,11.35,0,0,1,3.68,10.43,12.43,12.43,0,0,1-5.89,9,167.33,167.33,0,0,1-81.07,22.94Zm0-269.79c-52.51.26-99.5,30.07-119.21,75.62s-9,98,27.84,133c37.48,35.54,94,45.76,143,25.73l-87-82.05a10.76,10.76,0,0,1,0-17.4l115-109.17a137.47,137.47,0,0,0-79.61-25.73Z"/><path class="cls-6" d="M1383.32,441.4l-126,118.19,100.25,94.57a152.28,152.28,0,0,0,28-19.48C1440.14,579.93,1439.15,494.72,1383.32,441.4Z"/><path class="cls-5" d="M1355.29,664.59a11.36,11.36,0,0,1-8.84-3.47L1246.2,566.55a10.74,10.74,0,0,1,0-17.39l125.29-116.11a13.76,13.76,0,0,1,18.39-3.51,13.12,13.12,0,0,1,3.72,3.51c61.06,56.44,62.06,148.89,2.23,206.49-.73.71-1.48,1.41-2.23,2.11a134.37,134.37,0,0,1-29.49,22.24,12.57,12.57,0,0,1-8.85.7Zm-81.07-107.06,83.28,78.56a141.45,141.45,0,0,0,16.23-12.51c24.48-23,38.27-54.29,38.33-86.91.06-29.19-11.22-57.38-31.7-79.26Z"/><path class="cls-6" d="M1198.3,606.78c-20.73-18.36-53-18.36-73.72,0L790.73,921,846,973.87l353-292a49.53,49.53,0,0,0-.74-75.1Z"/><path class="cls-5" d="M843.05,986.42A13.73,13.73,0,0,1,834.2,983l-56-52.85a12,12,0,0,1,0-17.39l333.88-313.6c26.48-24.92,69.38-24.92,95.83,0a62.27,62.27,0,0,1,19.9,47.28,64,64,0,0,1-22.86,45.89l-353,292a13.08,13.08,0,0,1-8.84,2.09ZM804,921l36.85,35.46,346.4-284.39a37.61,37.61,0,0,0,14-27.82,36.33,36.33,0,0,0-12.53-28.5c-16.11-15.12-42.12-15.12-58.23,0Z"/><path class="cls-6" d="M532,1279.12a6.74,6.74,0,0,0,0,8.35L546.75,1348c1.27,7.22-2.4,14.42-9.17,18.25a18.8,18.8,0,0,1-21.06-2l-101-91.78L730.28,973.17H839.37l73.72,69.54A1685.76,1685.76,0,0,1,532,1279.12Z"/><path class="cls-5" d="M525.39,1381.33c-8.35-.15-16.59-3.39-22.11-9l-96.55-91.08a10.75,10.75,0,0,1,0-17.39L723.65,964.15a12.65,12.65,0,0,1,6.63-3.47H840.09a14.07,14.07,0,0,1,8.84,0l73.72,69.54a10.76,10.76,0,0,1,3.68,9.73,11,11,0,0,1-4.43,9l-5.88,4.88a1822.61,1822.61,0,0,1-378.11,228.75l14,56.32c4,16.12-6.57,32.26-23.66,36a33.5,33.5,0,0,1-6.55.79Zm-89.91-109.17,86.95,82.73a4.6,4.6,0,0,0,5.89,0,4,4,0,0,0,0-4.87l-14.73-60.49c-2.38-9,2.21-18.26,11-22.24a1828.46,1828.46,0,0,0,368.52-223.9l-60.45-57H734Z"/><path class="cls-6" d="M339.65,1343.79l73.71-69.54,113.52,107.08-180.57-11.81A14.55,14.55,0,0,1,333,1358.94a13.52,13.52,0,0,1,6.64-15.13Z"/><path class="cls-5" d="M529.06,1391.76,349.21,1380a28.27,28.27,0,0,1-23.6-17,25.46,25.46,0,0,1,5.91-27.48l73.72-69.54a13.85,13.85,0,0,1,18.43,0l112.77,106.39a11.22,11.22,0,0,1,0,13.89,13.87,13.87,0,0,1-7.38,5.56Zm-179.85-38.93,147.4,9.05-81.06-71.62Z"/><path class="cls-6" d="M849.68,981.57l-148.89,21.56L787,922.48Z"/><path class="cls-5" d="M700.79,1016.3a12.69,12.69,0,0,1-11.8-7,11.18,11.18,0,0,1,0-13.9l85.48-81.35a14.62,14.62,0,0,1,19.16,0l62.68,59.08a11.17,11.17,0,0,1,0,12.52,12.69,12.69,0,0,1-10.3,9L698.6,1016.3ZM787,940.5l-47.9,45.19,82.56-11.82Z"/><path class="cls-6" d="M849.68,981.51,745.76,994c-7.15,1.53-14.26-2.69-15.88-9.44a12.06,12.06,0,0,1,3.36-11.42l53.81-50.77Z"/><path class="cls-5" d="M742.8,1007.28a27.58,27.58,0,0,1-23.58-13.22,24,24,0,0,1,4.43-29.91l53.81-50.77a14.6,14.6,0,0,1,19.15,0l62.66,59.11a12,12,0,0,1,.51,17.7,13.61,13.61,0,0,1-8.61,3.87L748,1006.57Zm0-25.74,78.14-9L786.3,939.82l-44.22,41.72ZM1384,478.83a11.42,11.42,0,0,0-14-4.17,9.83,9.83,0,0,0-5.14,5.74,9.33,9.33,0,0,0,.72,7.48,28.53,28.53,0,0,1-3.68,31.29,8.57,8.57,0,0,0-2.76,6.6,9.62,9.62,0,0,0,2.76,6.59,8.41,8.41,0,0,0,5.89,0,10,10,0,0,0,9.59-2.79,45.79,45.79,0,0,0,6.64-50.76Z"/><g id="c100_arrow" data-name="c100 arrow"><path d="M1989.06,946.78c0,29.58,34,53.54,75.94,53.58l431.5,0-116.63,82.36c-31.59,22.32-33.21,57.37-3.57,78.33s79.31,19.78,110.95-2.54l243.62-172c31.68-22.3,33.28-57.37,3.59-78.31-.81-.51-1.67-.89-2.46-1.39-1-.75-1.73-1.64-2.78-2.42L2488.85,734.69c-31.22-22-80.5-22.87-110.14-1.93s-28.39,55.75,2.73,77.79l117.06,82.62H2065C2023.06,893.15,1989.06,917.13,1989.06,946.78Z"/></g></g></g></svg>